<svg width="512" height="512" viewBox="0 0 512 512" fill="none" xmlns="http://www.w3.org/2000/svg">
<path d="M239.992 358.309C278.972 358.803 310.418 390.555 310.418 429.651L310.412 430.574C309.918 469.554 278.166 501 239.069 501L238.147 500.994C199.475 500.504 168.217 469.247 167.727 430.574L167.721 429.651C167.721 390.247 199.665 358.303 239.069 358.303L239.992 358.309ZM239.069 390.303C217.338 390.303 199.721 407.92 199.721 429.651C199.721 451.383 217.338 469 239.069 469C260.801 469 278.418 451.383 278.418 429.651C278.418 407.92 260.801 390.303 239.069 390.303ZM197.22 29.0127C284.175 30.114 354.325 100.947 354.325 188.163L354.312 190.22C353.787 231.694 337.398 269.344 310.936 297.384C324.662 307.355 341.551 313.236 359.814 313.236C405.795 313.236 443.07 275.961 443.07 229.98C443.07 184.628 406.807 147.746 361.695 146.746C358.608 136.001 354.679 124.836 350.586 115.09C353.63 114.849 356.708 114.725 359.814 114.725L361.304 114.734C424.271 115.532 475.07 166.824 475.07 229.98L475.061 231.47C474.263 294.437 422.971 345.236 359.814 345.236L358.325 345.227C330.935 344.88 305.849 334.978 286.243 318.702C260.438 336.741 229.037 347.325 195.163 347.325L193.105 347.312C106.835 346.22 37.1053 276.49 36.0127 190.22L36 188.163C36 100.26 107.26 29 195.163 29L197.22 29.0127ZM195.163 61C124.933 61 68 117.933 68 188.163C68.0001 258.393 124.933 315.325 195.163 315.325C220.738 315.325 244.547 307.773 264.487 294.78C252.171 276.697 244.865 254.928 244.568 231.47L244.559 229.98C244.559 190.492 264.419 155.643 294.694 134.873C299.487 143.63 303.976 155.045 306.661 165.898C288.27 181.17 276.559 204.207 276.559 229.98C276.559 246.101 281.14 261.151 289.072 273.9C309.726 251.291 322.325 221.199 322.325 188.163C322.325 117.933 265.393 61.0002 195.163 61Z" fill="url(#paint0_linear_36_2)"/>
<defs>
<linearGradient id="paint0_linear_36_2" x1="36" y1="265" x2="454.162" y2="265" gradientUnits="userSpaceOnUse">
<stop stop-color="#FF5E00"/>
<stop offset="1" stop-color="#FF0095"/>
</linearGradient>
</defs>
</svg>
